name Walk6.mot
datacolumns 19
datarows 17
range 1.71300000 1.72900000
endheader

                time	   L_ground_force_vx	   L_ground_force_vy	   L_ground_force_vz	   L_ground_force_px	   L_ground_force_py	   L_ground_force_pz	   R_ground_force_vx	   R_ground_force_vy	   R_ground_force_vz	   R_ground_force_px	   R_ground_force_py	   R_ground_force_pz	   L_ground_torque_x	   L_ground_torque_y	   L_ground_torque_z	   R_ground_torque_x	   R_ground_torque_y	   R_ground_torque_z	
          1.71300000	          0.01123149	          0.05818472	         -0.00247499	         -0.00026394	          0.00000000	         -0.00002555	        -32.47616295	        542.61067991	        -21.28194500	          0.25224142	          0.00000000	          0.07734597	          0.00000000	          0.00015616	          0.00000000	          0.00000000	          0.44342628	          0.00000000	
          1.71400000	          0.00997496	          0.05319718	         -0.00225813	         -0.00025438	          0.00000000	         -0.00002484	        -32.19363471	        542.73883923	        -21.30464367	          0.25281146	          0.00000000	          0.07725096	          0.00000000	          0.00016095	          0.00000000	          0.00000000	          0.45867727	          0.00000000	
          1.71500000	          0.00878756	          0.04843267	         -0.00205117	         -0.00024468	          0.00000000	         -0.00002409	        -31.91245731	        542.88903080	        -21.32693888	          0.25338039	          0.00000000	          0.07715522	          0.00000000	          0.00016473	          0.00000000	          0.00000000	          0.47415394	          0.00000000	
          1.71600000	          0.00766792	          0.04389025	         -0.00185406	         -0.00023487	          0.00000000	         -0.00002331	        -31.63287135	        543.06131183	        -21.34882287	          0.25394818	          0.00000000	          0.07705874	          0.00000000	          0.00016757	          0.00000000	          0.00000000	          0.48985297	          0.00000000	
          1.71700000	          0.00661450	          0.03956819	         -0.00166670	         -0.00022501	          0.00000000	         -0.00002252	        -31.35511503	        543.25574649	        -21.37028913	          0.25451482	          0.00000000	          0.07696150	          0.00000000	          0.00016953	          0.00000000	          0.00000000	          0.50577110	          0.00000000	
          1.71800000	          0.00562564	          0.03546409	         -0.00148897	         -0.00021514	          0.00000000	         -0.00002170	        -31.07942376	        543.47240889	        -21.39133241	          0.25508027	          0.00000000	          0.07686349	          0.00000000	          0.00017068	          0.00000000	          0.00000000	          0.52190502	          0.00000000	
          1.71900000	          0.00469961	          0.03157493	         -0.00132073	         -0.00020530	          0.00000000	         -0.00002087	        -30.80602980	        543.71138510	        -21.41194882	          0.25564450	          0.00000000	          0.07676470	          0.00000000	          0.00017110	          0.00000000	          0.00000000	          0.53825127	          0.00000000	
          1.72000000	          0.00383456	          0.02789712	         -0.00116180	         -0.00019551	          0.00000000	         -0.00002004	        -30.53516196	        543.97277290	        -21.43213596	          0.25620748	          0.00000000	          0.07666513	          0.00000000	          0.00017083	          0.00000000	          0.00000000	          0.55480620	          0.00000000	
          1.72100000	          0.00302856	          0.02442661	         -0.00101199	         -0.00018582	          0.00000000	         -0.00001920	        -30.26704519	        544.25667938	        -21.45189311	          0.25676918	          0.00000000	          0.07656478	          0.00000000	          0.00016993	          0.00000000	          0.00000000	          0.57156586	          0.00000000	
          1.72200000	          0.00227965	          0.02115886	         -0.00087110	         -0.00017625	          0.00000000	         -0.00001835	        -30.00190041	        544.56321656	        -21.47122133	          0.25732956	          0.00000000	          0.07646367	          0.00000000	          0.00016847	          0.00000000	          0.00000000	          0.58852603	          0.00000000	
          1.72300000	          0.00158580	          0.01808900	         -0.00073890	         -0.00016683	          0.00000000	         -0.00001751	        -29.73994438	        544.89249657	        -21.49012333	          0.25788859	          0.00000000	          0.07636180	          0.00000000	          0.00016650	          0.00000000	          0.00000000	          0.60568217	          0.00000000	
          1.72400000	          0.00094495	          0.01521180	         -0.00061514	         -0.00015758	          0.00000000	         -0.00001668	        -29.48138958	        545.24462760	        -21.50860319	          0.25844623	          0.00000000	          0.07625918	          0.00000000	          0.00016407	          0.00000000	          0.00000000	          0.62302949	          0.00000000	
          1.72500000	          0.00035502	          0.01252175	         -0.00049958	         -0.00014852	          0.00000000	         -0.00001585	        -29.22644386	        545.61971160	        -21.52666599	          0.25900242	          0.00000000	          0.07615581	          0.00000000	          0.00016122	          0.00000000	          0.00000000	          0.64056296	          0.00000000	
          1.72600000	         -0.00018609	          0.01001310	         -0.00039196	         -0.00013967	          0.00000000	         -0.00001504	        -28.97530999	        546.01784403	        -21.54431740	          0.25955711	          0.00000000	          0.07605169	          0.00000000	          0.00015801	          0.00000000	          0.00000000	          0.65827738	          0.00000000	
          1.72700000	         -0.00068049	          0.00767991	         -0.00029201	         -0.00013104	          0.00000000	         -0.00001423	        -28.72818497	        546.43911509	        -21.56156337	          0.26011023	          0.00000000	          0.07594682	          0.00000000	          0.00015447	          0.00000000	          0.00000000	          0.67616728	          0.00000000	
          1.72800000	         -0.00113029	          0.00551608	         -0.00019945	         -0.00012266	          0.00000000	         -0.00001345	        -28.48525931	        546.88361182	        -21.57840971	          0.26066171	          0.00000000	          0.07584119	          0.00000000	          0.00015065	          0.00000000	          0.00000000	          0.69422695	          0.00000000	
          1.72900000	         -0.00153757	          0.00351538	         -0.00011401	         -0.00011452	          0.00000000	         -0.00001267	        -28.24671622	        547.35142010	        -21.59486173	          0.26121148	          0.00000000	          0.07573480	          0.00000000	          0.00014659	          0.00000000	          0.00000000	          0.71245034	          0.00000000	
